<svg width="65" height="65" viewBox="0 0 65 65" fill="none" xmlns="http://www.w3.org/2000/svg">
<path d="M21.6667 32.5L27.0834 28.4375L21.6667 24.375M43.3334 32.5L37.9167 28.4375L43.3334 24.375M43.3334 44.0104L39.7232 41.3021L36.1103 44.0104L32.5001 41.3021L28.8899 44.0104L25.277 41.3021L21.6667 44.0104" stroke="#FFBF00" stroke-width="1.5" stroke-linecap="round" stroke-linejoin="round"/>
<path d="M8.125 50.2721V32.6192C8.125 19.0937 19.0396 8.125 32.5 8.125C45.9604 8.125 56.875 19.0937 56.875 32.6192V50.2694C56.875 53.4165 54.256 57.0917 51.4583 55.686C49.1969 54.5485 45.4377 54.2777 43.3333 55.686C40.9662 57.2704 37.5754 57.2704 35.2083 55.686C32.8115 54.08 30.7423 54.1423 28.4375 55.686C26.0704 57.2704 22.6796 57.2704 20.3125 55.686C18.2081 54.2777 15.8031 54.5485 13.5417 55.686C10.744 57.0917 8.125 53.4192 8.125 50.2721Z" stroke="#004D99" stroke-width="1.5" stroke-linecap="round" stroke-linejoin="round"/>
</svg>
